<svg xmlns="http://www.w3.org/2000/svg" viewBox="0 0 250 224.42316154194143"
    preserveAspectRatio="xMidYMid meet" id="achacffb">
    <defs id="SvgjsDefs1001" />
    <g id="SvgjsG1007" featurekey="symbolGroupContainer"
        transform="matrix(3.055936098098755,0,0,3.055936098098755,47,-0.061118718912935306)"
        fill="#47978F">
        <path xmlns="http://www.w3.org/2000/svg"
            d="M34.56 47.26H16.5L3.73 34.51V16.43L16.5 3.66h18.06l12.77 12.77v18.08zm-17.57-1.19h17.08L46.14 34V16.93L34.07 4.86H17L4.93 16.93V34z" />
        <path xmlns="http://www.w3.org/2000/svg"
            d="M25.57 51.12L7.49 43.63 0 25.51l7.49-18L25.57.02l18.1 7.49 7.46 18-7.46 18.13zm-17.16-8.4l17.16 7.11 17.16-7.11 7.11-17.21-7.11-17.16-17.16-7.11L8.41 8.35 1.29 25.51z" />
    </g>
    <g id="SvgjsG1008" featurekey="symbolFeature-0"
        transform="matrix(2.17391300201416,0,0,2.17391300201416,72.82608695652173,26.056521830351457)"
        fill="#47978F">
        <g xmlns="http://www.w3.org/2000/svg">
            <path fill="none" stroke="#47978F" stroke-width="2" stroke-linecap="round"
                stroke-linejoin="round" stroke-miterlimit="10"
                d="   M8.694,41.018l-4.256-8.126l3.285-0.449l35.408-2.646c0,0-5.934,3.609-7.547,11.221" />
            <polyline fill="none" stroke="#47978F" stroke-width="2" stroke-linecap="round"
                stroke-linejoin="round" stroke-miterlimit="10"
                points="   16.3,31.27 16.3,26.185 7.789,26.185 7.789,32.342  " />
            <polyline fill="none" stroke="#47978F" stroke-width="2" stroke-linecap="round"
                stroke-linejoin="round" stroke-miterlimit="10"
                points="   14.366,24.65 14.366,18.933 35.053,18.933 35.053,30.663  " />
            <line fill="none" stroke="#47978F" stroke-width="2" stroke-linecap="round"
                stroke-linejoin="round" stroke-miterlimit="10" x1="29.145" y1="23.888" x2="29.145"
                y2="25.709" />
            <line fill="none" stroke="#47978F" stroke-width="2" stroke-linecap="round"
                stroke-linejoin="round" stroke-miterlimit="10" x1="22.086" y1="23.888" x2="22.086"
                y2="25.709" />
            <path fill="none" stroke="#47978F" stroke-width="2" stroke-linecap="round"
                stroke-linejoin="round" stroke-miterlimit="10"
                d="   M1,41.208c2.39,0.833,4.486,1.372,7.095,1.289c2.479-0.077,3.396-1.22,5.585-1.987c3.492-1.225,8.266-0.367,11.554,0.69   c2.074,0.669,3.623,1.36,6.061,1.093c1.852-0.203,3.426-1.24,5.172-1.515c3.932-0.62,6.844,1.479,10.533,1.503" />
            <line fill="none" stroke="#47978F" stroke-width="2" stroke-linecap="round"
                stroke-linejoin="round" stroke-miterlimit="10" x1="21.801" y1="18.933" x2="21.801"
                y2="5.494" />
        </g>
    </g>
    <g id="SvgjsG1009" featurekey="nameFeature-0"
        transform="matrix(1.2939757108688354,0,0,1.2939757108688354,-2.426204525250534,174.3825306250075)"
        fill="#47978F">
        <path
            d="M9.1406 1.328000000000003 l-7.2656 0 l14.531 22.578 l0 14.766 l7.1094 0 l0 -14.922 z M38.125 1.328000000000003 l-6.7969 0 l-8.5938 12.266 l3.8281 5.1563 z M70.703 38.5937 l7.0313 0 l-13.594 -37.266 l-7.1094 0 l7.8906 22.266 z M41.9531 38.5937 l6.875 0 l8.125 -19.844 l-3.3594 -8.9063 z M87.2656 12.5 c0.9375 -2.2916 2.2916 -4.2447 4.0624 -5.8593 c1.6146 -1.6146 3.698 -2.9167 6.2501 -3.9063 s5.2344 -1.4844 8.0469 -1.4844 l8.6719 0 l0 5.9375 l-8.5938 0 c-2.0313 0 -3.8281 0.33852 -5.3906 1.0156 c-1.6666 0.67711 -3.0208 1.5625 -4.0624 2.6563 c-1.0938 1.0416 -1.9791 2.3958 -2.6563 4.0624 c-0.625 1.5104 -0.9375 3.2031 -0.9375 5.0781 s0.3125 3.5677 0.9375 5.0781 c0.625 1.5625 1.5104 2.9166 2.6563 4.0625 c1.0416 1.0416 2.3958 1.901 4.0624 2.5781 c1.6666 0.625 3.4635 0.9375 5.3906 0.9375 l8.5938 0 l0 5.9375 l-8.6719 0 c-2.9166 0 -5.5729 -0.46875 -7.9688 -1.4063 c-2.5 -1.0416 -4.6094 -2.3698 -6.3281 -3.9844 c-1.7709 -1.6666 -3.125 -3.6458 -4.0625 -5.9374 c-0.98961 -2.3959 -1.4844 -4.8438 -1.4844 -7.3438 c0 -2.6563 0.49477 -5.1302 1.4844 -7.4219 z M131.094 16.875 l0 -15.547 l-6.5625 0 l0 37.344 l6.5625 0 l0 -21.797 z M148.984 1.328000000000003 l0 15.547 l-11.406 0 l0 6.0938 l11.406 0 l0 15.703 l6.4844 0 l0 -37.344 l-6.4844 0 z M183.281 7.5 l11.797 0 l0 -6.0938 l-30.156 0 l0 6.0938 l18.359 0 z M176.719 13.594000000000001 l6.5625 0 l0 25 l-6.5625 0 l0 -25 z" />
    </g>
</svg>