<svg xmlns="http://www.w3.org/2000/svg" viewBox="47 0 156.25 156.16">
	<g fill="#47978F">
		<path xmlns="http://www.w3.org/2000/svg"
			d="M152.613 144.362h-55.19L58.399 105.4V50.148l39.024-39.024h55.19l39.024 39.024v55.251zm-53.693-3.636h52.196L188 103.84V51.676L151.116 14.79H98.95L62.066 51.676v52.165z" />
		<path xmlns="http://www.w3.org/2000/svg"
			d="M125.14 156.158 69.89 133.27 47 77.896l22.889-55.007L125.14 0l55.313 22.889 22.797 55.007-22.797 55.404zm-52.44-25.67 52.44 21.728 52.44-21.728 21.728-52.592-21.728-52.44-52.44-21.728L72.7 25.456l-21.758 52.44z" />
	</g>
	<g xmlns="http://www.w3.org/2000/svg" fill="none" stroke="#47978F" stroke-linecap="round" stroke-linejoin="round"
		stroke-miterlimit="10" stroke-width="2">
		<path stroke-width="4.34"
			d="m91.726 115.226-9.252-17.665 7.141-.976 76.974-5.752s-12.9 7.845-16.406 22.393M108.26 94.035V82.98H89.76v13.385" />
		<path stroke-width="4.34"
			d="M104.057 83V67.215h44.971v24M136.185 77.987v3.959M120.84 77.987v3.959M72 115.64c5.196 1.81 9.752 2.982 15.424 2.801 5.389-.167 7.383-2.652 12.141-4.32 7.592-2.662 17.97-.797 25.118 1.5 4.508 1.455 7.876 2.957 13.176 2.377 4.026-.441 7.448-2.696 11.243-3.294 8.548-1.347 14.878 3.216 25 3.268M120.22 67.215V38" />
	</g>
</svg>