<?xml version="1.0" encoding="utf-8"?>
<!-- Generator: Adobe Illustrator 16.0.0, SVG Export Plug-In . SVG Version: 6.00 Build 0)  -->
<!DOCTYPE svg PUBLIC "-//W3C//DTD SVG 1.1//EN" "http://www.w3.org/Graphics/SVG/1.1/DTD/svg11.dtd">
<svg version="1.1" id="achacffb" xmlns="http://www.w3.org/2000/svg" xmlns:xlink="http://www.w3.org/1999/xlink" x="0px" y="0px"
	 width="1280px" height="252.023px" viewBox="0 962.5 1280 252.023" enable-background="new 0 962.5 1280 252.023"
	 xml:space="preserve">
<g id="SvgjsG1009" transform="matrix(1.2939757108688354,0,0,1.2939757108688354,-2.426204525250534,174.3825306250075)">
	<path fill="#47978F" d="M39.075,612.632h-37.2l74.399,115.599v75.602h36.4v-76.4L39.075,612.632z M187.475,612.632h-34.8
		l-44,62.802l19.6,26.4L187.475,612.632z M354.274,803.432h36.001L320.673,612.63h-36.401l40.401,114.002L354.274,803.432z
		 M207.075,803.432h35.2l41.601-101.601l-17.2-45.6L207.075,803.432z M439.074,669.833c4.801-11.733,11.733-21.733,20.799-30
		c8.267-8.266,18.934-14.933,32.001-20c13.067-5.066,26.8-7.6,41.2-7.6h44.4v30.4h-44c-10.4,0-19.6,1.734-27.599,5.2
		c-8.533,3.467-15.467,8-20.799,13.6c-5.601,5.333-10.133,12.266-13.6,20.799c-3.2,7.733-4.8,16.4-4.8,25.999
		c0,9.601,1.6,18.267,4.8,26c3.2,8,7.733,14.933,13.6,20.8c5.333,5.333,12.266,9.733,20.799,13.2c8.533,3.2,17.733,4.8,27.599,4.8
		h44v30.4h-44.4c-14.932,0-28.533-2.4-40.8-7.201c-12.8-5.333-23.6-12.133-32.4-20.4c-9.067-8.533-16-18.667-20.8-30.4
		c-5.066-12.267-7.6-24.8-7.6-37.6C431.475,694.231,434.008,681.565,439.074,669.833L439.074,669.833z M663.476,692.233v-79.601
		h-33.6v191.201h33.6V692.233z M755.073,612.632v79.601h-58.399v31.2h58.399v80.399h33.2V612.631L755.073,612.632L755.073,612.632z
		 M930.673,644.233h60.401v-31.2H836.676v31.2H930.673L930.673,644.233z M897.076,675.434h33.599v128h-33.599V675.434
		L897.076,675.434z"/>
</g>
</svg>
