<svg version="1" xmlns="http://www.w3.org/2000/svg" width="1502.667" height="1502.667" viewBox="0 0 1127.000000 1127.000000"><path d="M397.9 182.4c-.2.2-2 .7-3.9 1-5.7.9-12.4 2.3-12.7 2.6-.2.2-.6.3-1 .4-.5.1-2.3.6-4.1 1-1.8.4-4.5 1.4-6 2.2-1.5.8-3.3 1.4-4 1.4-.7 0-2 .4-3 .9-5.5 3-10.1 4.9-10.5 4.5-.2-.2-1 .2-1.7 1.1-.7.8-1.8 1.5-2.4 1.5-.6 0-4.9 2.3-9.5 5-4.6 2.8-8.5 5-8.7 5-.7 0-16.9 11.5-17.2 12.2-.2.4-.9.8-1.6.8-.6 0-1.8.9-2.6 2s-1.8 2-2.2 2c-.8 0-2 .9-13.7 11-14.1 12-16.8 15.1-17.6 20-.4 2.5-.9 5.4-1.1 6.5-.2 1.1-.7 3.3-.9 5-.3 1.6-.8 3.7-1 4.5-.2.8-.6 3.1-.9 5-.3 1.9-.8 4.7-1.1 6.2-.3 1.6-.7 4-1 5.5-.2 1.6-.7 3.9-1 5.3-.3 1.4-.7 4.1-.9 6-.3 1.9-1.2 7.1-2 11.5-.9 4.4-1.9 10-2.2 12.5-.3 2.4-.7 4.7-.9 5-.2.3-.6 2.6-1 5-.9 6.3-1.3 8.6-3 17.6-1.6 8.5-1.9 13.6-.7 11.9.8-1.2 16.1-9.8 44.6-25.2 9.2-4.9 56-28.2 68.1-33.8 4.4-2 10.3-4.8 13-6.1 9.9-4.6 18.8-8.4 19.8-8.4.6 0 1.8-.7 2.8-1.6.9-.8 2.6-1.6 3.8-1.7 1.1-.1 2.1-.5 2.1-.9s.7-.8 1.5-.8 2.3-.4 3.3-1c2.4-1.3 11.4-5.2 12.7-5.4.5-.2 2.8-1 5-2s7.4-3.1 11.5-4.7 8.4-3.4 9.5-3.9c1.1-.5 4-1.7 6.5-2.6 4.4-1.6 12-4.5 15-5.7.8-.4 3.5-1.3 6-2.2 2.5-.9 7-2.5 10-3.6 3-1 6.4-2.3 7.5-2.9 5.4-2.5 79.4-26.3 92-29.6 3.5-.9 3.5-.9 5.5-1.7 1.6-.6 11.9-3.4 15.7-4.3 1.2-.2 3.4-.9 4.8-1.4 1.4-.5 2.5-.7 2.5-.4 0 .2.8 0 1.9-.5 1-.6 3.1-1.3 4.7-1.5 1.6-.3 4.5-1.1 6.4-1.6 1.9-.6 4.6-1.3 5.9-1.6 1.4-.3 5.7-1.4 9.7-2.5 4-1.1 8.4-2.2 9.6-2.4 1.9-.4 5-1.1 9.1-2.1.4-.1.9-.3 1.2-.4.8-.4 1.8-.6 6.8-1.4 5.6-1 5.3-2-.6-2.3-2.3-.1-8.2-.4-13.2-.8-4.9-.3-13.3-.8-18.5-1a341 341 0 0 1-9.5-.5c0-.2-6.6-.6-20-1.4-6-.4-14.4-.9-18.5-1.1-4.1-.3-11.3-.8-16-1.1-4.7-.2-11.4-.6-15-.9-6.3-.4-19.7-1.2-35-2-11.1-.6-21.5-1.3-30-1.9-4.1-.4-11.8-.8-17-1.1-5.2-.3-12.9-.8-17-1-4.1-.3-11.3-.8-16-1.1-4.7-.3-10.5-.7-13-.9-7-.7-38.7-1.5-39.1-1.1zM1012.6 183.7c-.2.2-5.7.6-12.2.8-19.6.7-38.2 1.8-52.9 3.1-3.3.3-8.2.7-11 .9-6.9.4-18.1 1.4-23.6 2.1-2.6.3-6.9.7-9.5 1-2.7.2-6.2.6-7.9.8-1.6.2-5.9.6-9.5 1-3.6.4-7.6.9-9 1.1-1.4.2-5 .7-8.1 1-3.1.3-6.5.7-7.5.9-1.1.2-4.8.7-8.4 1.1-3.6.4-7.4.9-8.5 1.1-1.1.2-4 .7-6.5.9-2.5.3-7 1-10 1.5-5.2.9-7.3 1.2-16.7 2.5-2.1.3-7.4 1.2-11.8 2s-9.6 1.7-11.5 1.9c-1.9.3-4.6.7-6 1-3.5.7-7.9 1.5-12 2.2-4.6.8-6.5 1.2-6.5 1.4 0 .1-1.5.3-3.4.6-2.7.3-24.2 4.7-34.6 7-1.1.2-3.6.7-5.5 1-1.9.3-4.2.7-5 1-2.5.9-6.3 1.7-8.7 1.8-1.3.1-2.3.5-2.3 1s-.2.7-.6.4c-.3-.3-3.7.3-7.7 1.3-4 1.1-8.4 2.2-10 2.4-1.5.2-3.1.6-3.6.9-.4.3-2.3.8-4.2 1.1-1.9.3-4.2.8-5.1 1.1-1.8.5-4.9 1.2-8.8 2-1.4.2-3.6.9-5 1.4-1.4.5-3.6 1.2-5 1.4-2 .4-14.5 3.7-30.5 8-.5.1-3.5 1-6.6 2-3.1.9-6.5 1.8-7.5 2-1.1.3-5.5 1.5-9.9 2.9-18.9 5.9-29 9-30 9.2-.5.1-1.7.5-2.5.8-2 .7-15.2 5-16.5 5.3-.5.2-9.5 3.3-20 6.9-10.4 3.7-20.1 7-21.5 7.5-1.4.4-4.9 1.7-7.7 2.9-2.9 1.1-5.3 1.8-5.3 1.4 0-.3-.8.1-1.7.9-1 .8-3 1.8-4.5 2.2-1.5.3-3.7 1-5 1.5-1.3.5-2.6.9-3 1.1-.4.1-3.8 1.4-7.5 3s-7.1 2.6-7.5 2.4c-.4-.3-.8 0-.8.5 0 .6-.9 1.1-2 1.1s-2 .4-2 .8c0 .5-.6.9-1.2.9-1.2 0-18.9 7.1-28.8 11.5-5.3 2.4-9.3 4.1-10 4.2-.3.1-3.1 1.4-6.4 2.9-3.2 1.5-6 2.7-6.2 2.7-.2 0-4.6 1.9-9.6 4.3-5.1 2.4-10.9 4.9-12.8 5.7-1.9.7-4.7 2.2-6.2 3.2-1.6 1.1-2.8 1.7-2.8 1.4 0-.4-15.2 6.8-29.5 14-2.7 1.4-10.4 5.3-17 8.7-6.6 3.3-12.3 6.5-12.7 7.1-.4.6-.8.7-.8.2 0-.5-.6-.4-1.3.2-.6.5-4.1 2.5-7.7 4.4-22.8 12.3-41.5 22.7-47.5 26.7-3.8 2.5-7.4 4.8-8 5.1-1.3.6-15.6 10.2-17 11.3-.5.4-5.9 4-12 8-6 3.9-11.1 7.5-11.3 7.9-.2.5-.8.8-1.2.8-.8 0-26.8 16.9-30.5 19.7-.5.5-4.1 2.8-8 5.3-3.8 2.4-7.2 4.7-7.5 5-.3.3-3 2.1-6 4s-5.7 3.7-6 4c-.3.3-3.6 2.5-7.4 4.9-3.8 2.4-7.4 4.8-8 5.3-.6.5-11 7.4-23.1 15.3-12.1 7.9-22.4 14.8-23 15.2-.5.5-2.8 2-5 3.3-2.2 1.3-4.2 2.6-4.5 3-.3.3-2.3 1.7-4.5 3.1C62.2 528.8 53.4 534.6 53 535c-.3.4-2.3 1.7-4.5 3s-4.2 2.6-4.5 2.9c-.3.4-1.3 1-2.2 1.6-14.9 8.8-18.7 12.8-20.3 21-.6 3.2-.7 3.7-3 13.5-1.8 7.7-2.4 10.2-2.9 13.4-.2 1.4-.6 2.9-.9 3.3-.3.5-.8 2.8-1.2 5.3-.4 2.5-.9 4.8-1.2 5.2-.2.5-.7 2.1-.9 3.6-.3 1.5-1.8 8.3-3.5 15.2-1.6 6.9-3.2 13.4-3.4 14.5-.9 4.7-1.7 8.4-3.1 13.9-1.9 7.4-1.1 12.2 2.4 15.3 1.5 1.3 2.9 2.3 3.2 2.4.3 0 15.6.2 34 .4s41 .4 50.3.5c14.4.1 19.1.8 15.9 2.2-.4.1-2.3 2.7-4.1 5.6-1.9 3-3.9 5.9-4.5 6.6-.6.6-3.5 4.7-6.5 9.1-3 4.4-5.7 8.2-6 8.5-.3.3-2.2 2.7-4.1 5.5-1.9 2.7-3.9 5.5-4.5 6.2-1.7 2.1-2.9 3.6-8.5 11.3-3 4.1-5.7 7.7-6 8-.3.3-2.8 3.4-5.5 7s-5.4 7-6 7.7c-.5.6-1.8 2.2-2.8 3.5-.9 1.3-2.8 3.7-4.2 5.4-1.4 1.8-2.5 3.4-2.5 3.8 0 .3 1.9.3 4.3 0 2.3-.2 6.9-.6 10.2-.9 8.7-.6 19.4-1.6 24-2 2.2-.3 8.1-.7 13-1 5-.3 11-.7 13.5-1 2.5-.2 8.1-.7 12.5-1 4.4-.3 10.7-.8 14-1 5.9-.4 16.6-1.2 29.5-2.1 3.6-.2 10.3-.6 15-.9 4.7-.3 12.1-.7 16.5-.9 11.7-.8 38.9-2.1 59.5-3.1 55.2-2.5 144.1-2.4 186 .1 4.7.3 11.7.7 15.5.9 3.9.2 7 .4 7 .5 0 .1 2.3.3 5 .4 13.4.9 25 1.8 25.5 2.1.3.1 4.8.6 10 1 12.5 1 13.4 1.1 30.5 3.6 3.9.6 7.7 1 8.5 1.1.8 0 3.5.4 6 .8 2.5.5 6.8 1.1 9.5 1.4 2.8.3 6.1.8 7.5 1.1 2.7.6 6.9 1.3 11.5 2 1.7.3 5.3.9 8 1.5 2.8.6 6.1 1.2 7.4 1.5 1.4.2 4.7.9 7.5 1.5s6.1 1.2 7.4 1.5c1.3.2 3.1.6 4 .9 1.7.5 6.1 1.5 9.7 2.1 2.8.5 22.1 5.4 31 7.9.6.1 2.6.6 4.5 1s4.6 1.1 6 1.6c1.4.5 5.9 1.8 10 3s9.3 2.8 11.5 3.7c2.2.8 4 1.4 4 1.3 0-.2.4 0 11.5 3.5 4.7 1.4 9.4 3 10.5 3.5 5.2 2.1 16.1 6 16.8 6 2.3 0 54.7 21.8 73.6 30.7 19.6 9.1 22.6 10.7 23.3 11.7.4.6.8.8.8.4 0-.7 25 11.9 39.4 19.9 4.3 2.3 8 4.3 8.2 4.3.3 0 2.1 1 4.2 2.3 2 1.3 6.6 3.9 10.2 5.9 8.4 4.5 11.4 6.2 12 6.8.3.3 1.6 1.1 3 1.8 2.8 1.4 4 2 20.2 11.7 6.5 3.9 13.3 7.9 15.3 9 4.5 2.6 19.2 11.7 28 17.3 10.7 6.8 11.4 7.2 12.1 7.1.4 0 1 .3 1.3.8.7 1.1 8.6 6.3 12.4 8.2 1.5.8 2.7 1.8 2.7 2.3 0 .4.8.8 1.7.8 1.4 0 1.2-.4-.7-2.5-3.3-3.5-1.9-3.1 2 .5 4.3 4 4.5 3.9 2.3-1.8-.3-.9-.7-2.2-.8-2.7-.1-.6-.3-1.2-.4-1.5-.2-.3-.4-1.4-.6-2.5-1-5.4-10.2-36.4-13.9-46.5-1-2.5-1.8-5-2-5.5-.2-.6-.6-1.7-.9-2.5-1.3-3.3-7.8-20.6-8.1-21.5-.1-.6-1-2.8-2-5s-2.4-5.6-3.1-7.5c-4-10.9-28.9-61-30.7-61.8-.5-.2-.8-.7-.8-1.2 0-1.1-8.2-15.4-9.3-16.1-.5-.3-.7-.8-.6-1 .8-1.2-32.1-49.9-41.8-61.9-.7-.8-2.6-3.3-4.3-5.5-5.8-7.6-16-20-21.5-26.2-.5-.6-3.7-4.2-7-7.9s-7.5-8.4-9.3-10.3c-2.3-2.6-3.1-4.3-2.8-6.1.3-2.4 4.7-13.8 8.7-22.7 1-2.4 1.9-4.5 1.9-4.7 0-.7 8-18 9-19.6.6-.8 1.3-2.2 1.6-3 1-2.4 14.3-28.8 18.1-36 3.6-6.7 28.9-51.2 33.3-58.5 1.4-2.2 4.5-7.4 6.9-11.4 2.3-4 8.5-14.1 13.7-22.3 5.2-8.3 9.4-15.4 9.4-15.9s.4-.9.9-.9 1.4-1.4 2.1-3c.7-1.7 1.6-3 2.1-3s.9-.4.9-.9 2.3-4.4 5-8.5c2.8-4.2 5-8 5-8.6 0-.5.4-1 .8-1 .5 0 1.4-1 2.1-2.3 3-5.5 11.3-18.1 12.3-18.5.4-.2.8-.8.8-1.3 0-1.2 14.1-22.3 15.2-22.7.4-.2.8-.8.8-1.4 0-.8 7.4-12.2 9-13.8.3-.3 1-1.3 1.5-2.2.6-.9 5.1-7.5 10-14.7 5-7.2 9.5-13.9 10-14.8.6-1 1.5-2.3 2.2-3 .7-.8 2-2.7 3-4.3.9-1.7 2.1-3 2.5-3 .4 0 .8-.4.8-1 0-.8 25.7-38 28.7-41.5.5-.6 2.9-3.9 5.3-7.5 2.5-3.6 4.8-6.7 5.1-7 .3-.3 2.3-3 4.5-6.1 8.6-12.5 35.2-48.8 39.4-53.9 1.1-1.4 3.1-3.9 4.3-5.5 2.2-3 6.5-8.1 9.9-11.6 2.1-2.2 1.6-2.6-4.6-3.3-2.6-.3-5.1-.8-5.6-1.1-2-1.2-18.2-1.8-58.8-1.9-23.8-.1-43.4 0-43.6.1zm-104 82.5c.3.4-3.5 5.9-8.5 12.2-5 6.4-9.1 12.1-9.1 12.6s-.6 1.3-1.3 1.7c-.7.4-2.6 2.6-4.3 4.8-1.6 2.2-3.3 4.5-3.9 5.1-.5.6-3 3.9-5.5 7.2-4.5 6-4.5 6-9 5.6-24.6-2.1-90.1-2.1-118.4.1-2.8.2-9.1.7-14.1 1-10.3.7-16.1 1.2-26 2-3.8.4-9 .8-11.5 1-2.5.2-4.5.4-4.5.5 0 .1-1.7.3-3.7.5-6.6.5-16.6 1.6-19 2-3 .5-13.8 1.7-16.3 1.9-2 .1-5.1-2.1-15.2-10.7l-4.4-3.7 2.5-1c1.4-.5 3.6-1.1 4.8-1.3 1.3-.2 3-.6 3.8-1 1.4-.5 13.3-3.4 17-4.2.8-.2 3.5-.9 6-1.6 2.5-.6 5.2-1.3 6-1.4 1.5-.2 4.1-.8 9-2 1.4-.3 3.6-.8 5-1.1 2.7-.6 10.2-2.3 13.5-3.1 1.1-.2 2.9-.6 4-.7 1.1-.2 2-.4 2-.6 0-.1.9-.3 2-.5 3.4-.5 8.8-1.6 13-2.6 2.2-.6 4.7-1 5.5-1.1.8 0 4.4-.6 8-1.3 6.4-1.3 11-2.2 16-3 4.6-.7 9.5-1.5 12-2 4.7-.9 9.5-1.7 12.5-2.1 3.2-.4 9.7-1.4 13-2 1.1-.2 4-.6 6.5-.9 2.5-.3 5.6-.7 7-1 1.4-.3 4.3-.7 6.5-1 2.2-.2 5.4-.6 7-.9 1.7-.3 5.7-.8 9-1.1 3.3-.4 7.4-.8 9-1 1.7-.3 5.3-.7 8-.9 2.8-.3 6.8-.8 9-1 2.2-.3 7.4-.8 11.5-1.1 4.1-.3 10-.7 13-1 3-.3 10.2-.7 15.9-1 5.7-.2 10.5-.6 10.7-.8.5-.5 5.3-.1 6 .5zM236.5 293c-.3.5-1.4 1-2.3 1-3.3 0-30.2 14.2-42.7 22.5-7.1 4.8-13.2 9-13.5 9.4-.3.3-2.1 1.8-4 3.2-1.9 1.5-4.5 3.5-5.7 4.5-1.2 1.1-3.6 3-5.4 4.4-1.8 1.4-6.4 5.5-10.3 9.2-3.9 3.8-7.4 6.8-7.8 6.8-.4 0-.8.9-.9 2-.1 4.3 0 25 .1 25.7.2.5.1 1.2 0 1.8-.5 2.1-.5 45.2 0 47.8l.5 2.6 8.9-5.9c4.9-3.3 9.3-6 9.8-6 .4 0 .8-.4.8-.9s.8-1.2 1.9-1.6c1-.3 3.1-1.7 4.7-3 1.6-1.4 3.4-2.5 4.1-2.5.6 0 1.3-.3 1.5-.8.4-.9 20.2-14.1 24.1-16.1 1.5-.7 2.7-1.7 2.7-2.1 0-.4 1.4-1.3 3-2 1.7-.7 3-1.6 3-2.1s.5-.9 1-.9c1.2 0 7.3-4.1 7.8-5.3.2-.4.8-.7 1.4-.7 1.7 0 6.2-4 6.5-5.8.2-.9.6-2.8.8-4.2.2-1.4.9-5.2 1.5-8.5.5-3.3 1.3-7.6 1.6-9.5.3-1.9 1-5.5 1.5-8 .6-2.5 1.2-6.5 1.5-8.9.2-2.4.6-4.7.9-5 .2-.4.7-2.7 1-5.2.7-5 1.3-8.4 1.5-8.4.1 0 .3-1.6.6-3.5.2-1.9.9-5.9 1.5-8.9s1.2-6.4 1.4-7.5c.1-1.2.6-3.6.9-5.4.5-2.7.3-3.2-1.3-3.2-1.1 0-2.3.4-2.6 1z"/></svg>